<svg width="81" height="35" viewBox="0 0 81 35" fill="none" xmlns="http://www.w3.org/2000/svg">
<path d="M20.5303 10.7972C20.8591 11.445 21.0234 12.1925 21.0234 13.0231C21.0234 13.7207 20.8591 14.3852 20.5303 15.0662C20.2016 15.7307 19.8071 16.3619 19.3304 16.9599L10.7336 27.4082H20.7604C20.9577 27.7903 21.1549 28.272 21.3522 28.8534C21.533 29.4347 21.6316 30.0826 21.6316 30.7636C21.6316 31.9762 21.3686 32.84 20.8426 33.3716C20.3166 33.9031 19.6098 34.1689 18.7222 34.1689H1.79168C1.24924 33.6872 0.805438 33.1224 0.493127 32.458C0.164379 31.8101 0 31.0626 0 30.2321C0 29.551 0.164379 28.87 0.493127 28.1889C0.821875 27.5245 1.21637 26.8933 1.69306 26.2953L10.4871 15.847H1.06843C0.871185 15.4649 0.673935 14.9832 0.476686 14.4018C0.295875 13.8204 0.197253 13.1726 0.197253 12.4915C0.197253 11.2789 0.460251 10.4152 0.986248 9.8836C1.51224 9.35205 2.21905 9.08627 3.10667 9.08627H19.2318C19.7742 9.56799 20.218 10.1328 20.5303 10.7972Z" fill="white"></path>
<path d="M26.0707 9.40298C26.4488 9.30331 26.9748 9.20364 27.6816 9.08737C28.3884 8.9877 29.1445 8.93787 29.9664 8.93787C31.6759 8.93787 32.8923 9.22025 33.6484 9.78503C34.4045 10.3498 34.7661 11.4461 34.7661 13.074V34.1201C34.3881 34.2198 33.8456 34.3195 33.1553 34.4358C32.4485 34.5354 31.6923 34.5853 30.8705 34.5853C29.161 34.5853 27.9282 34.3029 27.1885 33.7381C26.4324 33.1733 26.0707 32.077 26.0707 30.4491V9.40298Z" fill="white"></path>
<path d="M45.0049 34.5841C43.2954 34.5841 42.0626 34.3017 41.3229 33.7369C40.5668 33.1722 40.2051 32.0758 40.2051 30.448V0.465108C40.5832 0.365442 41.1256 0.265776 41.816 0.149499C42.5228 0.0498333 43.2789 0 44.1008 0C45.8103 0 47.0267 0.282387 47.7828 0.847161C48.5389 1.41193 48.9005 2.50826 48.9005 4.13614V34.1356C48.5225 34.2353 47.98 34.3349 47.2897 34.4512C46.5829 34.5509 45.8267 34.6007 45.0049 34.6007V34.5841Z" fill="white"></path>
<path d="M80.2137 21.6115C80.2137 23.6879 79.9014 25.5483 79.2603 27.1928C78.6357 28.8539 77.7317 30.2492 76.5482 31.412C75.3647 32.5748 73.9675 33.4552 72.3238 34.0698C70.68 34.6844 68.839 35 66.8008 35C64.7626 35 62.9051 34.701 61.2778 34.103C59.6341 33.505 58.2369 32.6246 57.0534 31.4618C55.8699 30.2991 54.9659 28.9037 54.3413 27.2426C53.7166 25.5815 53.3879 23.7045 53.3879 21.6115C53.3879 19.5185 53.7166 17.7412 54.3577 16.0801C54.9987 14.419 55.9192 13.0236 57.1027 11.8609C58.2862 10.6981 59.6834 9.81771 61.3271 9.2031C62.9709 8.5885 64.7954 8.27289 66.8008 8.27289C68.8062 8.27289 70.6307 8.5885 72.2745 9.23633C73.9182 9.86754 75.3154 10.7645 76.4989 11.9273C77.6824 13.0901 78.5864 14.4854 79.2439 16.1465C79.885 17.8076 80.2137 19.6348 80.2137 21.6281V21.6115ZM66.8008 15.1498C65.3707 15.1498 64.253 15.7146 63.4804 16.8276C62.6914 17.9405 62.2969 19.5351 62.2969 21.6115C62.2969 23.7876 62.6914 25.4154 63.4804 26.4952C64.2694 27.5749 65.3707 28.123 66.8008 28.123C68.2308 28.123 69.3486 27.5749 70.1212 26.4619C70.9102 25.3656 71.3047 23.7377 71.3047 21.5949C71.3047 19.4521 70.9102 17.9405 70.1212 16.8109C69.3322 15.698 68.2308 15.1332 66.8008 15.1332V15.1498Z" fill="white"></path>
</svg>