<svg width="20" height="20" viewBox="0 0 20 20" fill="none" xmlns="http://www.w3.org/2000/svg">
<path d="M14.0198 4.91901C14.3126 4.62641 14.7875 4.62647 15.0804 4.91901C15.3733 5.2119 15.3733 5.68764 15.0804 5.98053L11.0599 9.99908L15.0804 14.0196C15.3732 14.3124 15.3731 14.7872 15.0804 15.0801C14.7875 15.373 14.3127 15.373 14.0198 15.0801L9.99933 11.0596L5.9798 15.0801C5.6869 15.373 5.21214 15.373 4.91925 15.0801C4.62665 14.7872 4.62645 14.3124 4.91925 14.0196L8.93878 9.99908L4.91925 5.98053C4.62636 5.68764 4.62636 5.2119 4.91925 4.91901C5.21204 4.62637 5.68692 4.62651 5.9798 4.91901L9.99933 8.93854L14.0198 4.91901Z" fill="black"></path>
</svg>