<svg width="20" height="20" viewBox="0 0 20 20" fill="none" xmlns="http://www.w3.org/2000/svg">
<path d="M10 3.08105C13.5693 3.08105 15.9738 5.21942 17.3691 7.03223L17.3936 7.06543C17.7091 7.47528 18.0001 7.85249 18.1973 8.29883C18.4084 8.77678 18.5 9.29763 18.5 10C18.5 10.7024 18.4084 11.2232 18.1973 11.7012C18.0001 12.1475 17.7091 12.5247 17.3936 12.9346L17.3691 12.9678C15.9738 14.7806 13.5693 16.9189 10 16.9189C6.43069 16.9189 4.02622 14.7806 2.63086 12.9678L2.60645 12.9346C2.29087 12.5247 1.99991 12.1475 1.80273 11.7012C1.59159 11.2232 1.5 10.7024 1.5 10C1.5 9.29763 1.59159 8.77678 1.80273 8.29883C1.99991 7.8525 2.29088 7.47527 2.60645 7.06543L2.63086 7.03223C4.02622 5.21942 6.43069 3.08105 10 3.08105ZM10 4.26758C6.95617 4.26758 4.85967 6.08208 3.57129 7.75586C3.2245 8.20639 3.0213 8.47589 2.8877 8.77832C2.76287 9.06094 2.68652 9.40626 2.68652 10C2.68652 10.5937 2.76287 10.9391 2.8877 11.2217C3.0213 11.5241 3.2245 11.7936 3.57129 12.2441C4.85967 13.9179 6.95617 15.7324 10 15.7324C13.0438 15.7324 15.1403 13.9179 16.4287 12.2441C16.7755 11.7936 16.9787 11.5241 17.1123 11.2217C17.2371 10.9391 17.3135 10.5937 17.3135 10C17.3135 9.40626 17.2371 9.06094 17.1123 8.77832C16.9787 8.47589 16.7755 8.20639 16.4287 7.75586C15.1403 6.08208 13.0438 4.26758 10 4.26758ZM10 7.03516C11.6376 7.03516 12.9648 8.36241 12.9648 10C12.9648 11.6376 11.6376 12.9648 10 12.9648C8.36241 12.9648 7.03516 11.6376 7.03516 10C7.03516 8.36241 8.36241 7.03516 10 7.03516ZM10 8.2207C9.01745 8.2207 8.2207 9.01745 8.2207 10C8.22071 10.9826 9.01745 11.7793 10 11.7793C10.9826 11.7793 11.7793 10.9826 11.7793 10C11.7793 9.01745 10.9826 8.2207 10 8.2207Z" fill="black"></path>
</svg>